# xmcd
#
# Track frame offsets: 
#        150
#        12990
#        25665
#        37580
#        50265
#        61455
#        76420
#        88495
#        99550
#        110920
#        121440
#        133515
#        146185
#        158790
#        172085
#        184970
#        196970
#        210180
#        223450
#        235520
#
# Disc length: 3334 seconds
#
# Revision: 0
# Processed by: cddbd v1.5.2PL0 Copyright (c) Steve Scherf et al.
# Submitted via: ExactAudioCopy v0.99pb5
#
DISCID=1e0d0414
DTITLE=Hank Snow - Country Inspiration
DYEAR=2008
DGENRE=Country
TTITLE0=I'm Movin' On
TTITLE1=Golden Rocket
TTITLE2=Marriage Vow
TTITLE3=The Rhumba Boogie
TTITLE4=A Fool Such as I
TTITLE5=Nobody's Child
TTITLE6=Bluebird Island (with Anita Carter)
TTITLE7=Music Makin' Mama From Memphis
TTITLE8=With This Ring I Thee Wed
TTITLE9=Unwanted Sign Upon Your Heart
TTITLE10=Paving the Highway With Tears
TTITLE11=I Wonder Where You Are Tonight
TTITLE12=The Blind Boy's Dog
TTITLE13=We'll Never Say Goodbye
TTITLE14=The Anniversary of My Broken Heart
TTITLE15=My Two Timin' Woman
TTITLE16=My San Antonio Mama
TTITLE17=Confused With the Blues
TTITLE18=Wondering On
TTITLE19=Someday You'll Care
EXTD=
EXTT0=
EXTT1=
EXTT2=
EXTT3=
EXTT4=
EXTT5=
EXTT6=
EXTT7=
EXTT8=
EXTT9=
EXTT10=
EXTT11=
EXTT12=
EXTT13=
EXTT14=
EXTT15=
EXTT16=
EXTT17=
EXTT18=
EXTT19=
PLAYORDER=
